<svg xmlns="http://www.w3.org/2000/svg" fill="none" viewBox="-0.75 -0.75 16 16" stroke="#000000" aria-hidden="true" id="Shopping-Bag--Streamline-Heroicons-Outline.svg" height="16" width="16"><desc>Shopping Bag Streamline Icon: https://streamlinehq.com</desc><path stroke-linecap="round" stroke-linejoin="round" d="M9.787802083333334 6.234999999999999V3.19C9.787802083333334 1.2366083333333333 7.673218749999999 0.01576875 5.981552083333333 0.9924645833333333C5.1964375 1.4457708333333332 4.712802083333333 2.2834479166666664 4.712802083333333 3.19V6.234999999999999M12.397016666666667 4.886379166666666L13.251670833333334 13.006379166666665C13.299037499999999 13.4563625 12.947170833333333 13.8475 12.494468749999998 13.8475H2.0061354166666665C1.5537958333333333 13.847983333333332 1.2008416666666666 13.456241666666667 1.24826875 13.006379166666665L2.1035874999999997 4.886379166666666C2.1444291666666664 4.4989875 2.4712229166666666 4.204939583333333 2.860789583333333 4.205H11.639814583333331C12.029622916666666 4.205 12.356416666666666 4.49935 12.397016666666667 4.886379166666666ZM4.966552083333332 6.234999999999999C4.966552083333332 6.430327083333333 4.7550937499999995 6.552429166666666 4.585927083333333 6.454735416666666C4.507385416666666 6.409422916666666 4.459052083333333 6.3256854166666665 4.459052083333333 6.234999999999999C4.459052083333333 6.0396729166666665 4.670510416666667 5.9175708333333334 4.839677083333333 6.015264583333333C4.9181583333333325 6.060577083333333 4.966552083333332 6.144314583333333 4.966552083333332 6.234999999999999ZM10.041552083333332 6.234999999999999C10.041552083333332 6.430327083333333 9.830093749999998 6.552429166666666 9.660927083333334 6.454735416666666C9.582385416666666 6.409422916666666 9.534052083333332 6.3256854166666665 9.534052083333332 6.234999999999999C9.534052083333332 6.0396729166666665 9.745510416666667 5.9175708333333334 9.914677083333332 6.015264583333333C9.993158333333334 6.060577083333333 10.041552083333332 6.144314583333333 10.041552083333332 6.234999999999999Z" stroke-width="1.5"></path></svg>